PathFileType	4	(X/Y/Z)	C:\Github\BTS_project\Data\sports2d_results\test6 Exam_2026-03-06_143334_tvc4_Sports2D\test6 Exam_2026-03-06_143334_tvc4_Sports2D_px_person00.trc
DataRate	CameraRate	NumFrames	NumMarkers	Units	OrigDataRate	OrigDataStartFrame	OrigNumFrames
30.0	30.0	10	22	m	30.0	27	220
Frame#	Time	Hip			RHip			RKnee			RAnkle			RBigToe			RSmallToe			RHeel			LHip			LKnee			LAnkle			LBigToe			LSmallToe			LHeel			Neck			Head			Nose			RShoulder			RElbow			RWrist			LShoulder			LElbow			LWrist			
		X1	Y1	Z1	X2	Y2	Z2	X3	Y3	Z3	X4	Y4	Z4	X5	Y5	Z5	X6	Y6	Z6	X7	Y7	Z7	X8	Y8	Z8	X9	Y9	Z9	X10	Y10	Z10	X11	Y11	Z11	X12	Y12	Z12	X13	Y13	Z13	X14	Y14	Z14	X15	Y15	Z15	X16	Y16	Z16	X17	Y17	Z17	X18	Y18	Z18	X19	Y19	Z19	X20	Y20	Z20	X21	Y21	Z21	X22	Y22	Z22
27	0.9041095890410958	31.587451219265855	559.4610439028165	0.0	-482.44105482022167	856.5260224042593	0.0																-809.665781158935	847.260083705028	0.0																12.977376996773867	605.5040512947348	0.0	12.629935760286473	554.2864146119053	0.0	18.141580636805244	561.4404358563021	0.0	14.984458108219687	625.1107768505178	0.0	-222.71523480572793	716.3045960664117	0.0				-7.607147978416899	627.9408180485145	0.0	-977.4249712611077	669.0026147663568	0.0			
28	0.9375951293759512	31.405643132860433	561.7192028343977	0.0	-474.96874268769176	854.8939501442741	0.0																-797.7856063300151	845.7623004116988	0.0																13.128675219728326	605.3018349123943	0.0	12.894754372291004	554.2758525737997	0.0	17.58691867921906	562.0364826137762	0.0	15.446519087387742	624.9281735259133	0.0	-218.82741286977637	715.7073393662129	0.0				-7.179109233976573	627.5576402149951	0.0	-963.2250120359594	668.9793858130749	0.0			
29	0.9710806697108066	31.22383504647144	563.977361765775	0.0	-467.4964305558372	853.2618778844364	0.0																-785.9054315021689	844.2645171185051	0.0																13.279973442669117	605.0996185300718	0.0	13.159572984271614	554.2652905356952	0.0	17.032256721682977	562.6325293711967	0.0	15.908580066514038	624.7455702013252	0.0	-214.9395909341762	715.1100826660679	0.0				-6.751070489574904	627.1744623815102	0.0	-949.0250528120944	668.9561568597949	0.0			
30	1.004566210045662	31.04202696007234	566.2355206972777	0.0	-460.02411842356713	851.629805624508	0.0																-774.0252566736619	842.7667338252279	0.0																13.431271665618333	604.897402147738	0.0	13.424391596266961	554.25472849759	0.0	16.477594764116017	563.2285761286503	0.0	16.37064104566603	624.5629668767269	0.0	-211.05176899835982	714.5128259658899	0.0				-6.323031745149403	626.791284548004	0.0	-934.8250935874397	668.9329279065137	0.0			
31	1.0380517503805176	30.86021887366629	568.4936796288669	0.0	-452.55180629101125	849.9977333645172	0.0																-762.1450818447007	841.2689505318936	0.0																13.582569888573316	604.6951857653966	0.0	13.689210208272401	554.2441664594845	0.0	15.922932806527928	563.8246228861266	0.0	16.832702024835697	624.3803635521216	0.0	-207.16394706239475	713.9155692656891	0.0				-5.894993000707612	626.4081067144832	0.0	-920.625134362242	668.9096989532316	0.0			
32	1.0715372907153728	30.678410787259647	570.7518385604633	0.0	-445.0794941584311	848.3656611045212	0.0																-750.2649070157009	839.7711672385542	0.0																13.733868111528713	604.4929693830547	0.0	13.954028820278578	554.233604421379	0.0	15.368270848938348	564.4206696436044	0.0	17.29476300400686	624.1977602275156	0.0	-203.2761251264171	713.3183125654862	0.0				-5.466954256264724	626.0249288809616	0.0	-906.425175136998	668.8864699999492	0.0			
33	1.1050228310502281	30.49660270085414	573.0099974920456	0.0	-437.60718202589794	846.7335888445353	0.0																-738.3847321867759	838.2733839452244	0.0																13.885166334483117	604.2907530007144	0.0	14.218847432283026	554.2230423832735	0.0	14.813608891352413	565.0167164010783	0.0	17.75682398317512	624.0151569029109	0.0	-199.3883031904639	712.721055865287	0.0				-5.038915511824679	625.6417510474425	0.0	-892.2252159118435	668.8632410466671	0.0			
34	1.1385083713850837	30.314794614449177	575.2681564236212	0.0	-430.13486989338685	845.1015165845542	0.0																-726.5045573578859	836.775600651899	0.0																14.036464557437391	604.0885366183738	0.0	14.483666044287201	554.212480345168	0.0	14.258946933766843	565.6127631585518	0.0	18.21888496234201	623.8325535783069	0.0	-195.50048125452219	712.1237991650896	0.0				-4.610876767384688	625.258573213923	0.0	-878.0252566867312	668.8400120933852	0.0			
35	1.1719939117199392	30.13298652804419	577.5263153551971	0.0	-422.66255776087485	843.469444324573	0.0																-714.6243825289944	835.2778173585734	0.0																14.18776278039248	603.8863202360311	0.0	14.748484656292707	554.2019183070622	0.0	13.704284976177988	566.2088099160293	0.0	18.68094594150896	623.6499502537029	0.0	-191.61265931857992	711.5265424648921	0.0				-4.18283802294159	624.8753953803998	0.0	-863.8252974616169	668.8167831401032	0.0			
36	1.2054794520547945	29.95117844163909	579.7844742867743	0.0	-415.1902456283581	841.8373720645909	0.0																-702.7442077000953	833.780034065247	0.0																14.33906100334755	603.6841038536886	0.0	15.013303268298197	554.1913562689565	0.0	13.149623018589246	566.8048566735066	0.0	19.1430069206762	623.4673469290985	0.0	-187.7248373826352	710.9292857646944	0.0				-3.7547992784986572	624.492217546877	0.0	-849.6253382364935	668.793554186821	0.0			
